HIERARCHY
ROOT Hips
{
	OFFSET	0.00	0.00	0.00
	CHANNELS 6 Xposition Yposition Zposition Zrotation Xrotation Yrotation
	JOINT LeftUpLeg
	{
		OFFSET	 0.126116	-0.014019	-0.065224
		CHANNELS 3 Zrotation Xrotation Yrotation
		JOINT LeftLeg
		{
			OFFSET	 0.000000	 0.000000	 0.569914
			CHANNELS 3 Zrotation Xrotation Yrotation
			JOINT LeftFoot
			{
				OFFSET	 0.000000	 0.000000	 0.544423
				CHANNELS 3 Zrotation Xrotation Yrotation
				JOINT LeftToeBase
				{
					OFFSET	 0.000000	 0.000000	 0.207117
					CHANNELS 3 Zrotation Xrotation Yrotation
					End Site
					{
						OFFSET	 0.000000	 0.000000	 0.207117
					}
				}
			}
		}
	}
	JOINT RightUpLeg
	{
		OFFSET	-0.124023	-0.008373	-0.065224
		CHANNELS 3 Zrotation Xrotation Yrotation
		JOINT RightLeg
		{
			OFFSET	 0.000000	 0.000000	 0.570047
			CHANNELS 3 Zrotation Xrotation Yrotation
			JOINT RightFoot
			{
				OFFSET	 0.000000	 0.000000	 0.544354
				CHANNELS 3 Zrotation Xrotation Yrotation
				JOINT RightToeBase
				{
					OFFSET	 0.000000	 0.000000	 0.207540
					CHANNELS 3 Zrotation Xrotation Yrotation
					End Site
					{
						OFFSET	 0.000000	 0.000000	 0.207540
					}
				}
			}
		}
	}
	JOINT Spine
	{
		OFFSET	 0.000184	-0.007763	 0.117403
		CHANNELS 3 Zrotation Xrotation Yrotation
		JOINT Spine1
		{
			OFFSET	 0.000000	 0.000000	 0.137269
			CHANNELS 3 Zrotation Xrotation Yrotation
			JOINT Spine2
			{
				OFFSET	 0.000000	 0.000000	 0.156879
				CHANNELS 3 Zrotation Xrotation Yrotation
				JOINT LeftShoulder
				{
					OFFSET	 0.080501	-0.002496	 0.160144
					CHANNELS 3 Zrotation Xrotation Yrotation
					JOINT LeftArm
					{
						OFFSET	 0.000000	 0.000000	 0.164363
						CHANNELS 3 Zrotation Xrotation Yrotation
						JOINT LeftForeArm
						{
							OFFSET	 0.000000	 0.000000	 0.364576
							CHANNELS 3 Zrotation Xrotation Yrotation
							JOINT LeftHand
							{
								OFFSET	 0.000000	 0.000000	 0.360812
								CHANNELS 3 Zrotation Xrotation Yrotation
								JOINT LeftHandIndex1
								{
									OFFSET	 0.000000	 0.000000	 0.086006
									CHANNELS 3 Zrotation Xrotation Yrotation
									JOINT LeftHandIndex2
									{
										OFFSET	 0.000000	 0.000000	 0.047236
										CHANNELS 3 Zrotation Xrotation Yrotation
										JOINT LeftHandIndex3
										{
											OFFSET	-0.004284	-0.000551	 0.038166
											CHANNELS 3 Zrotation Xrotation Yrotation
											End Site
											{
												OFFSET	-0.004284	-0.000551	 0.038166
											}
										}
									}
								}
							}
						}
					}
				}
				JOINT Neck
				{
					OFFSET	 0.000000	 0.000000	 0.176489
					CHANNELS 3 Zrotation Xrotation Yrotation
					JOINT Head
					{
						OFFSET	 0.000000	-0.001747	 0.077940
						CHANNELS 3 Zrotation Xrotation Yrotation
						End Site
						{
							OFFSET	 0.000000	-0.001747	 0.077940
						}
					}
				}
				JOINT RightShoulder
				{
					OFFSET	-0.080363	 0.000306	 0.159706
					CHANNELS 3 Zrotation Xrotation Yrotation
					JOINT RightArm
					{
						OFFSET	 0.000000	 0.000000	 0.164196
						CHANNELS 3 Zrotation Xrotation Yrotation
						JOINT RightForeArm
						{
							OFFSET	 0.000000	 0.000000	 0.365611
							CHANNELS 3 Zrotation Xrotation Yrotation
							JOINT RightHand
							{
								OFFSET	 0.000000	 0.000000	 0.360648
								CHANNELS 3 Zrotation Xrotation Yrotation
								JOINT RightHandIndex1
								{
									OFFSET	 0.000000	 0.000000	 0.069977
									CHANNELS 3 Zrotation Xrotation Yrotation
									JOINT RightHandIndex2
									{
										OFFSET	 0.000000	 0.000000	 0.052305
										CHANNELS 3 Zrotation Xrotation Yrotation
										JOINT RightHandIndex3
										{
											OFFSET	 0.009002	-0.000782	 0.042196
											CHANNELS 3 Zrotation Xrotation Yrotation
											End Site
											{
												OFFSET	 0.009002	-0.000782	 0.042196
											}
										}
									}
								}
							}
						}
					}
				}
			}
		}
	}
}
MOTION
Frames:    4
Frame Time: 0.03333334
 0.000193	 0.017328	 1.304429	-0.001931	 0.004676	 0.128516	 10.053220	-2.201658	 176.882900	 1.477050	-11.649120	-0.679561	-6.845335	 64.130330	 0.998069	-2.385833	 28.452760	 0.000004	-10.188070	-2.326537	-177.138500	-1.465324	-11.503050	 0.658473	 6.547349	 63.943210	-0.830393	 2.384658	 28.388730	 0.000004	 19.903900	 2.720985	 0.246963	-1.603621	 3.654852	-0.597496	 4.858925	-4.567707	 1.046603	-91.776120	 78.527450	 179.999900	 42.565330	 32.528030	-54.378390	-24.184910	 3.327759	-10.810160	-32.147760	-9.270036	-4.745021	-2.635965	 4.993658	 6.788941	-5.165319	 0.784187	 3.516649	-5.225038	 0.466231	 0.424329	-0.000002	-3.783157	-0.089647	 4.726180	 4.833826	-0.199609	 89.782100	 78.203900	 180.000000	-2.230126	 11.682920	 115.588000	-18.345220	 3.010606	 10.916770	 5.136847	-10.282820	-5.759122	 6.112037	 4.509576	-0.364401	 4.968462	 1.518543	-9.347576	 5.168945	 0.703820	 2.021906
 0.000199	 0.017179	 1.306493	-0.001930	 0.004674	 0.128518	 10.554530	-2.233284	 176.852400	 1.477048	-11.649090	-0.679558	-6.806167	 63.771430	 0.972894	-2.385833	 28.452760	 0.000004	-10.689420	-2.355868	-177.109700	-1.465328	-11.503190	 0.658480	 6.508186	 63.586230	-0.804169	 2.384658	 28.388730	 0.000004	 23.736120	 2.720989	 0.246960	-1.603622	 3.654847	-0.597498	 4.858925	-4.567700	 1.046604	-91.776130	 78.527430	 180.000000	 42.587270	 32.534300	-54.411440	-20.684910	 2.110857	-8.620324	-29.039610	-17.433260	-4.139624	-2.635965	 4.993658	 6.788941	-5.165319	 0.784187	 3.516649	-5.225038	 0.466231	 0.424329	-0.000002	-3.783157	-0.089647	 4.726180	 4.833826	-0.199609	 89.782140	 78.203870	 180.000000	-2.323219	 11.898130	 115.513700	-22.006680	 1.787510	 8.706656	 0.514592	-17.862620	-6.845061	 6.112037	 4.509576	-0.364401	 4.968462	 1.518543	-9.347576	 5.168945	 0.703820	 2.021906
 0.000255	 0.016971	 1.308525	-0.001931	 0.004676	 0.128516	 11.109680	-2.268643	 176.818900	 1.477046	-11.649090	-0.679559	-6.762635	 63.374100	 0.945165	-2.385833	 28.452760	 0.000004	-11.244580	-2.388586	-177.078100	-1.465322	-11.503190	 0.658481	 6.464727	 63.190940	-0.775321	 2.384658	 28.388730	 0.000004	 26.785990	 2.720986	 0.246963	-1.603621	 3.654841	-0.597511	 4.858930	-4.567698	 1.046611	-91.776150	 78.527430	 180.000000	 42.688570	 32.606130	-54.589960	-16.236430	 0.998762	-5.758196	-25.027220	-26.568970	-2.140347	-2.635965	 4.993658	 6.788941	-5.165319	 0.784187	 3.516649	-5.225038	 0.466231	 0.424329	-0.000002	-3.783157	-0.089647	 4.726179	 4.833827	-0.199609	 89.782100	 78.203890	 180.000000	-2.520549	 12.183920	 115.353600	-26.648120	 0.667728	 5.820328	-5.658080	-26.030270	-9.589813	 6.112037	 4.509576	-0.364401	 4.968462	 1.518543	-9.347576	 5.168945	 0.703820	 2.021906
 0.000263	 0.016848	 1.310892	-0.001930	 0.004674	 0.128514	 11.618740	-2.301283	 176.788500	 1.477048	-11.648970	-0.679551	-6.722584	 63.009760	 0.919856	-2.385833	 28.452760	 0.000004	-11.753670	-2.418725	-177.049400	-1.465327	-11.502940	 0.658467	 6.424770	 62.828400	-0.749011	 2.384658	 28.388730	 0.000004	 28.109550	 2.720986	 0.246964	-1.603626	 3.654843	-0.597484	 4.858924	-4.567697	 1.046600	-91.776150	 78.527430	 180.000000	 42.835850	 32.727620	-54.859800	-11.710610	 0.351857	-2.789361	-20.618990	-33.771550	 0.996167	-2.635965	 4.993658	 6.788941	-5.165319	 0.784187	 3.516649	-5.225038	 0.466231	 0.424329	-0.000002	-3.783157	-0.089647	 4.726179	 4.833827	-0.199609	 89.782100	 78.203890	 180.000000	-5.379921	 12.274490	 114.875300	-31.078160	 0.016569	 2.824873	-12.648650	-32.022220	-13.340170	 6.112037	 4.509576	-0.364401	 4.968462	 1.518543	-9.347576	 5.168945	 0.703820	 2.021906
